<svg width="743" height="296" viewBox="0 0 743 296" fill="none" xmlns="http://www.w3.org/2000/svg">
<path d="M107.547 163.484H35.0859L34.6953 127.742H97.9766C108.654 127.742 117.703 126.18 125.125 123.055C132.677 119.799 138.406 115.177 142.312 109.188C146.219 103.068 148.172 95.7109 148.172 87.1172C148.172 77.612 146.349 69.8646 142.703 63.875C139.057 57.8854 133.458 53.5234 125.906 50.7891C118.484 48.0547 108.979 46.6875 97.3906 46.6875H49.9297V292H0.90625V7.625H97.3906C113.016 7.625 126.948 9.1224 139.188 12.1172C151.557 15.112 162.039 19.7995 170.633 26.1797C179.357 32.4297 185.932 40.3724 190.359 50.0078C194.917 59.6432 197.195 71.1016 197.195 84.3828C197.195 96.1016 194.396 106.844 188.797 116.609C183.198 126.245 174.93 134.122 163.992 140.242C153.055 146.362 139.448 150.008 123.172 151.18L107.547 163.484ZM105.398 292H19.6562L41.7266 253.133H105.398C116.466 253.133 125.711 251.31 133.133 247.664C140.555 243.888 146.089 238.745 149.734 232.234C153.51 225.594 155.398 217.846 155.398 208.992C155.398 199.747 153.771 191.74 150.516 184.969C147.26 178.068 142.117 172.794 135.086 169.148C128.055 165.372 118.875 163.484 107.547 163.484H52.4688L52.8594 127.742H124.539L135.672 141.219C151.297 141.74 164.122 145.19 174.148 151.57C184.305 157.951 191.857 166.219 196.805 176.375C201.753 186.531 204.227 197.469 204.227 209.188C204.227 227.286 200.255 242.456 192.312 254.695C184.5 266.935 173.237 276.245 158.523 282.625C143.81 288.875 126.102 292 105.398 292ZM299.344 80.6719V292H252.078V80.6719H299.344ZM248.953 25.2031C248.953 18.0417 251.297 12.1172 255.984 7.42969C260.802 2.61198 267.443 0.203125 275.906 0.203125C284.24 0.203125 290.815 2.61198 295.633 7.42969C300.451 12.1172 302.859 18.0417 302.859 25.2031C302.859 32.2344 300.451 38.0938 295.633 42.7812C290.815 47.4688 284.24 49.8125 275.906 49.8125C267.443 49.8125 260.802 47.4688 255.984 42.7812C251.297 38.0938 248.953 32.2344 248.953 25.2031ZM341.922 188.68V184.188C341.922 168.953 344.135 154.826 348.562 141.805C352.99 128.654 359.37 117.26 367.703 107.625C376.167 97.8594 386.453 90.3073 398.562 84.9688C410.802 79.5 424.604 76.7656 439.969 76.7656C455.464 76.7656 469.266 79.5 481.375 84.9688C493.615 90.3073 503.966 97.8594 512.43 107.625C520.893 117.26 527.339 128.654 531.766 141.805C536.193 154.826 538.406 168.953 538.406 184.188V188.68C538.406 203.914 536.193 218.042 531.766 231.062C527.339 244.083 520.893 255.477 512.43 265.242C503.966 274.878 493.68 282.43 481.57 287.898C469.461 293.237 455.724 295.906 440.359 295.906C424.865 295.906 410.997 293.237 398.758 287.898C386.648 282.43 376.362 274.878 367.898 265.242C359.435 255.477 352.99 244.083 348.562 231.062C344.135 218.042 341.922 203.914 341.922 188.68ZM388.992 184.188V188.68C388.992 198.185 389.969 207.169 391.922 215.633C393.875 224.096 396.935 231.518 401.102 237.898C405.268 244.279 410.607 249.292 417.117 252.938C423.628 256.583 431.375 258.406 440.359 258.406C449.083 258.406 456.635 256.583 463.016 252.938C469.526 249.292 474.865 244.279 479.031 237.898C483.198 231.518 486.258 224.096 488.211 215.633C490.294 207.169 491.336 198.185 491.336 188.68V184.188C491.336 174.812 490.294 165.958 488.211 157.625C486.258 149.161 483.133 141.674 478.836 135.164C474.669 128.654 469.331 123.576 462.82 119.93C456.44 116.154 448.823 114.266 439.969 114.266C431.115 114.266 423.432 116.154 416.922 119.93C410.542 123.576 405.268 128.654 401.102 135.164C396.935 141.674 393.875 149.161 391.922 157.625C389.969 165.958 388.992 174.812 388.992 184.188ZM696.414 234.773C696.414 230.086 695.242 225.854 692.898 222.078C690.555 218.172 686.062 214.656 679.422 211.531C672.911 208.406 663.276 205.542 650.516 202.938C639.318 200.464 629.031 197.534 619.656 194.148C610.411 190.633 602.469 186.401 595.828 181.453C589.188 176.505 584.044 170.646 580.398 163.875C576.753 157.104 574.93 149.292 574.93 140.438C574.93 131.844 576.818 123.706 580.594 116.023C584.37 108.341 589.773 101.57 596.805 95.7109C603.836 89.8516 612.365 85.2292 622.391 81.8438C632.547 78.4583 643.875 76.7656 656.375 76.7656C674.083 76.7656 689.253 79.7604 701.883 85.75C714.643 91.6094 724.409 99.6172 731.18 109.773C737.951 119.799 741.336 131.128 741.336 143.758H694.266C694.266 138.159 692.833 132.951 689.969 128.133C687.234 123.185 683.068 119.214 677.469 116.219C671.87 113.094 664.839 111.531 656.375 111.531C648.302 111.531 641.596 112.833 636.258 115.438C631.049 117.911 627.143 121.167 624.539 125.203C622.065 129.24 620.828 133.667 620.828 138.484C620.828 142 621.479 145.19 622.781 148.055C624.214 150.789 626.557 153.328 629.812 155.672C633.068 157.885 637.495 159.969 643.094 161.922C648.823 163.875 655.984 165.763 664.578 167.586C680.724 170.971 694.591 175.333 706.18 180.672C717.898 185.88 726.883 192.651 733.133 200.984C739.383 209.188 742.508 219.604 742.508 232.234C742.508 241.609 740.49 250.203 736.453 258.016C732.547 265.698 726.818 272.404 719.266 278.133C711.714 283.732 702.664 288.094 692.117 291.219C681.701 294.344 669.982 295.906 656.961 295.906C637.82 295.906 621.609 292.521 608.328 285.75C595.047 278.849 584.956 270.06 578.055 259.383C571.284 248.576 567.898 237.378 567.898 225.789H613.406C613.927 234.513 616.336 241.479 620.633 246.688C625.06 251.766 630.529 255.477 637.039 257.82C643.68 260.034 650.516 261.141 657.547 261.141C666.01 261.141 673.107 260.034 678.836 257.82C684.565 255.477 688.927 252.352 691.922 248.445C694.917 244.409 696.414 239.852 696.414 234.773Z" fill="#BFBEBE" fill-opacity="0.5"/>
</svg>
